<?xml version="1.0" encoding="utf-8" ?>
<svg baseProfile="full" height="1000%" version="1.1" width="1000%" xmlns="http://www.w3.org/2000/svg" xmlns:ev="http://www.w3.org/2001/xml-events" xmlns:xlink="http://www.w3.org/1999/xlink">
    <defs />
    <rect fill="rgb(0,0,0)" class="restaurantBackground" height="26.44927536231884" rx="3" ry="3" width="69" x="0" y="0" />
    <rect fill="rgb(0,0,0)" class="restaurantBackground" height="29.55072463768116" rx="3" ry="3" width="36.5" x="0" y="20.44927536231884" />
    <rect fill="rgb(0,0,0)" class="restaurantBackground" height="50" rx="3" ry="3" width="36.5" x="0" y="44.0" />
    <ellipse cx="7" cy="4.808959156785243" fill="rgb(255,165,0)" class="table" id="table_1" onclick="console.log(1)" rx="5" ry="4" />
    <ellipse cx="63" cy="4.408212560386473" fill="rgb(255,165,0)" class="table" id="table_2" onclick="console.log(2)" rx="4" ry="4" />
    <ellipse cx="7" cy="14.808959156785242" fill="rgb(255,165,0)" class="table" id="table_3" onclick="console.log(3)" rx="5" ry="4" />
    <ellipse cx="63" cy="14.408212560386474" fill="rgb(255,165,0)" class="table" id="table_4" onclick="console.log(4)" rx="4" ry="4" />
    <ellipse cx="5" cy="34.408212560386474" fill="rgb(255,165,0)" class="table" id="table_5" onclick="console.log(5)" rx="3" ry="4" />
    <ellipse cx="30.0" cy="34.408212560386474" fill="rgb(255,165,0)" class="table" id="table_6" onclick="console.log(6)" rx="4" ry="4" />
    <ellipse cx="5" cy="44.408212560386474" fill="rgb(255,165,0)" class="table" id="table_7" onclick="console.log(7)" rx="3" ry="4" />
    <ellipse cx="30.0" cy="44.408212560386474" fill="rgb(255,165,0)" class="table" id="table_8" onclick="console.log(8)" rx="4" ry="4" />
    <ellipse cx="6" cy="54.408212560386474" fill="rgb(255,165,0)" class="table" id="table_9" onclick="console.log(9)" rx="4" ry="4" />
    <ellipse cx="31.0" cy="54.408212560386474" fill="rgb(255,165,0)" class="table" id="table_10" onclick="console.log(10)" rx="3" ry="4" />
    <ellipse cx="6" cy="64.40821256038647" fill="rgb(255,165,0)" class="table" id="table_11" onclick="console.log(11)" rx="4" ry="4" />
    <ellipse cx="31.0" cy="64.40821256038647" fill="rgb(255,165,0)" class="table" id="table_12" onclick="console.log(12)" rx="3" ry="4" />
    <ellipse cx="6" cy="74.40821256038647" fill="rgb(255,165,0)" class="table" id="table_13" onclick="console.log(13)" rx="4" ry="4" />
    <ellipse cx="31.0" cy="74.40821256038647" fill="rgb(255,165,0)" class="table" id="table_14" onclick="console.log(14)" rx="3" ry="4" />
    <ellipse cx="6" cy="84.40821256038647" fill="rgb(255,165,0)" class="table" id="table_15" onclick="console.log(15)" rx="4" ry="4" />
    <ellipse cx="31.0" cy="84.40821256038647" fill="rgb(255,165,0)" class="table" id="table_16" onclick="console.log(16)" rx="3" ry="4" />
</svg>