<?xml version="1.0" encoding="utf-8" ?>
<svg baseProfile="full" height="100%" version="1.1" width="100%" xmlns="http://www.w3.org/2000/svg" xmlns:ev="http://www.w3.org/2001/xml-events" xmlns:xlink="http://www.w3.org/1999/xlink"><defs /><rect fill="black" height="100" width="100" x="0" y="0" /><rect fill="black" height="100" width="100" x="0" y="300" /><rect fill="black" height="100" width="100" x="0" y="400" /><rect fill="black" height="100" width="100" x="100" y="0" /><rect fill="black" height="100" width="100" x="100" y="200" /><rect fill="black" height="100" width="100" x="100" y="300" /><rect fill="black" height="100" width="100" x="100" y="400" /><rect fill="black" height="100" width="100" x="200" y="0" /><rect fill="black" height="100" width="100" x="200" y="100" /><rect fill="black" height="100" width="100" x="200" y="200" /><rect fill="black" height="100" width="100" x="200" y="300" /><rect fill="black" height="100" width="100" x="200" y="400" /><rect fill="black" height="100" width="100" x="300" y="0" /><rect fill="black" height="100" width="100" x="300" y="100" /><rect fill="black" height="100" width="100" x="300" y="200" /><rect fill="black" height="100" width="100" x="300" y="300" /><rect fill="black" height="100" width="100" x="300" y="400" /><rect fill="#339E00" height="25" id="table_0_8" onclick="console.log(0)" rx="5" ry="5" width="80" x="305" y="415" /><rect fill="#339E00" height="25" id="table_1_7" onclick="console.log(1)" rx="5" ry="5" width="70" x="305" y="460" /><rect fill="#339E00" height="25" id="table_2_6" onclick="console.log(2)" rx="5" ry="5" width="60" x="310" y="315" /><rect fill="#339E00" height="25" id="table_3_7" onclick="console.log(3)" rx="5" ry="5" width="70" x="301" y="260" /><rect fill="#339E00" height="25" id="table_4_6" onclick="console.log(4)" rx="5" ry="5" width="60" x="305" y="115" /><rect fill="#339E00" height="25" id="table_5_5" onclick="console.log(5)" rx="5" ry="5" width="50" x="308" y="60" /><rect fill="#339E00" height="25" id="table_6_5" onclick="console.log(6)" rx="5" ry="5" width="50" x="210" y="415" /><rect fill="#339E00" height="25" id="table_7_5" onclick="console.log(7)" rx="5" ry="5" width="50" x="203" y="460" /><rect fill="#339E00" height="25" id="table_8_5" onclick="console.log(8)" rx="5" ry="5" width="50" x="210" y="315" /><rect fill="#339E00" height="25" id="table_9_6" onclick="console.log(9)" rx="5" ry="5" width="60" x="207" y="260" /><rect fill="#339E00" height="25" id="table_10_4" onclick="console.log(10)" rx="5" ry="5" width="40" x="210" y="115" /><rect fill="#339E00" height="25" id="table_11_5" onclick="console.log(11)" rx="5" ry="5" width="30" x="260" y="115" /><rect fill="#339E00" height="25" id="table_12_5" onclick="console.log(12)" rx="5" ry="5" width="50" x="204" y="60" /><rect fill="#339E00" height="25" id="table_13_4" onclick="console.log(13)" rx="5" ry="5" width="40" x="110" y="415" /><rect fill="#339E00" height="25" id="table_14_7" onclick="console.log(14)" rx="5" ry="5" width="70" x="108" y="460" /><rect fill="#339E00" height="25" id="table_15_6" onclick="console.log(15)" rx="5" ry="5" width="60" x="106" y="315" /><rect fill="#339E00" height="25" id="table_16_5" onclick="console.log(16)" rx="5" ry="5" width="50" x="107" y="260" /><rect fill="#339E00" height="25" id="table_17_7" onclick="console.log(17)" rx="5" ry="5" width="70" x="105" y="60" /><rect fill="#339E00" height="25" id="table_18_5" onclick="console.log(18)" rx="5" ry="5" width="50" x="8" y="415" /><rect fill="#339E00" height="25" id="table_19_6" onclick="console.log(19)" rx="5" ry="5" width="22" x="68" y="415" /><rect fill="#339E00" height="25" id="table_20_6" onclick="console.log(20)" rx="5" ry="5" width="60" x="10" y="460" /><rect fill="#339E00" height="25" id="table_21_5" onclick="console.log(21)" rx="5" ry="5" width="50" x="8" y="315" /><rect fill="#339E00" height="25" id="table_22_7" onclick="console.log(22)" rx="5" ry="5" width="22" x="68" y="315" /><rect fill="#339E00" height="25" id="table_23_4" onclick="console.log(23)" rx="5" ry="5" width="40" x="3" y="60" /></svg>