<?xml version="1.0" encoding="utf-8" ?>
<svg baseProfile="full" height="100%" version="1.1" width="100%" xmlns="http://www.w3.org/2000/svg"
     xmlns:ev="http://www.w3.org/2001/xml-events" xmlns:xlink="http://www.w3.org/1999/xlink">
    <defs/>
    <rect fill="black" height="100" width="100" x="0" y="200"/>
    <rect fill="black" height="100" width="100" x="100" y="0"/>
    <rect fill="black" height="100" width="100" x="100" y="200"/>
    <rect fill="black" height="100" width="100" x="200" y="0"/>
    <rect fill="black" height="100" width="100" x="200" y="100"/>
    <rect fill="black" height="100" width="100" x="200" y="200"/>
    <rect fill="black" height="100" width="100" x="300" y="0"/>
    <rect fill="black" height="100" width="100" x="300" y="100"/>
    <rect fill="black" height="100" width="100" x="300" y="200"/>
    <rect fill="black" height="100" width="100" x="400" y="0"/>
    <rect fill="black" height="100" width="100" x="400" y="100"/>
    <rect fill="black" height="100" width="100" x="400" y="200"/>
    <rect fill="black" height="100" width="100" x="500" y="0"/>
    <rect fill="black" height="100" width="100" x="500" y="100"/>
    <rect fill="black" height="100" width="100" x="500" y="200"/>
    <rect fill="black" height="100" width="100" x="600" y="0"/>
    <rect fill="black" height="100" width="100" x="600" y="100"/>
    <rect fill="black" height="100" width="100" x="600" y="200"/>
    <rect fill="#339E00" height="25" id="table_0_7" onclick="console.log(0)" rx="5" ry="5" width="70" x="609" y="215"/>
    <rect fill="#339E00" height="25" id="table_1_8" onclick="console.log(1)" rx="5" ry="5" width="80" x="606" y="115"/>
    <rect fill="#339E00" height="25" id="table_2_8" onclick="console.log(2)" rx="5" ry="5" width="80" x="610" y="160"/>
    <rect fill="#339E00" height="25" id="table_3_5" onclick="console.log(3)" rx="5" ry="5" width="50" x="610" y="15"/>
    <rect fill="#339E00" height="25" id="table_4_4" onclick="console.log(4)" rx="5" ry="5" width="40" x="507" y="215"/>
    <rect fill="#339E00" height="25" id="table_5_7" onclick="console.log(5)" rx="5" ry="5" width="33" x="557" y="215"/>
    <rect fill="#339E00" height="25" id="table_6_6" onclick="console.log(6)" rx="5" ry="5" width="60" x="506" y="115"/>
    <rect fill="#339E00" height="25" id="table_7_8" onclick="console.log(7)" rx="5" ry="5" width="80" x="507" y="160"/>
    <rect fill="#339E00" height="25" id="table_8_5" onclick="console.log(8)" rx="5" ry="5" width="50" x="506" y="15"/>
    <rect fill="#339E00" height="25" id="table_9_4" onclick="console.log(9)" rx="5" ry="5" width="24" x="566" y="15"/>
    <rect fill="#339E00" height="25" id="table_10_8" onclick="console.log(10)" rx="5" ry="5" width="80" x="410"
          y="215"/>
    <rect fill="#339E00" height="25" id="table_11_6" onclick="console.log(11)" rx="5" ry="5" width="60" x="407"
          y="115"/>
    <rect fill="#339E00" height="25" id="table_12_8" onclick="console.log(12)" rx="5" ry="5" width="80" x="401"
          y="160"/>
    <rect fill="#339E00" height="25" id="table_13_7" onclick="console.log(13)" rx="5" ry="5" width="70" x="405" y="15"/>
    <rect fill="#339E00" height="25" id="table_14_6" onclick="console.log(14)" rx="5" ry="5" width="60" x="308"
          y="215"/>
    <rect fill="#339E00" height="25" id="table_15_4" onclick="console.log(15)" rx="5" ry="5" width="40" x="305"
          y="115"/>
    <rect fill="#339E00" height="25" id="table_16_7" onclick="console.log(16)" rx="5" ry="5" width="35" x="355"
          y="115"/>
    <rect fill="#339E00" height="25" id="table_17_7" onclick="console.log(17)" rx="5" ry="5" width="70" x="303"
          y="160"/>
    <rect fill="#339E00" height="25" id="table_18_5" onclick="console.log(18)" rx="5" ry="5" width="50" x="305" y="15"/>
    <rect fill="#339E00" height="25" id="table_19_4" onclick="console.log(19)" rx="5" ry="5" width="25" x="365" y="15"/>
    <rect fill="#339E00" height="25" id="table_20_5" onclick="console.log(20)" rx="5" ry="5" width="50" x="209"
          y="215"/>
    <rect fill="#339E00" height="25" id="table_21_6" onclick="console.log(21)" rx="5" ry="5" width="21" x="269"
          y="215"/>
    <rect fill="#339E00" height="25" id="table_22_8" onclick="console.log(22)" rx="5" ry="5" width="80" x="208"
          y="115"/>
    <rect fill="#339E00" height="25" id="table_23_6" onclick="console.log(23)" rx="5" ry="5" width="60" x="205"
          y="160"/>
    <rect fill="#339E00" height="25" id="table_24_5" onclick="console.log(24)" rx="5" ry="5" width="50" x="205" y="15"/>
    <rect fill="#339E00" height="25" id="table_25_6" onclick="console.log(25)" rx="5" ry="5" width="60" x="105"
          y="215"/>
    <rect fill="#339E00" height="25" id="table_26_7" onclick="console.log(26)" rx="5" ry="5" width="70" x="109" y="15"/>
    <rect fill="#339E00" height="25" id="table_27_5" onclick="console.log(27)" rx="5" ry="5" width="50" x="7" y="215"/>
</svg>