<?xml version="1.0" encoding="utf-8" ?>
<svg baseProfile="full" height="100%" version="1.1" width="100%" xmlns="http://www.w3.org/2000/svg" xmlns:ev="http://www.w3.org/2001/xml-events" xmlns:xlink="http://www.w3.org/1999/xlink"><defs /><rect fill="black" height="100" width="100" x="0" y="100" /><rect fill="black" height="100" width="100" x="0" y="200" /><rect fill="black" height="100" width="100" x="0" y="400" /><rect fill="black" height="100" width="100" x="100" y="100" /><rect fill="black" height="100" width="100" x="100" y="200" /><rect fill="black" height="100" width="100" x="100" y="300" /><rect fill="black" height="100" width="100" x="100" y="400" /><rect fill="black" height="100" width="100" x="200" y="100" /><rect fill="black" height="100" width="100" x="200" y="200" /><rect fill="black" height="100" width="100" x="200" y="300" /><rect fill="black" height="100" width="100" x="200" y="400" /><rect fill="#339E00" height="25" id="table_0_8" onclick="console.log(0)" rx="5" ry="5" width="80" x="206" y="415" /><rect fill="#339E00" height="25" id="table_1_7" onclick="console.log(1)" rx="5" ry="5" width="70" x="206" y="460" /><rect fill="#339E00" height="25" id="table_2_4" onclick="console.log(2)" rx="5" ry="5" width="40" x="208" y="360" /><rect fill="#339E00" height="25" id="table_3_8" onclick="console.log(3)" rx="5" ry="5" width="80" x="209" y="260" /><rect fill="#339E00" height="25" id="table_4_5" onclick="console.log(4)" rx="5" ry="5" width="50" x="202" y="160" /><rect fill="#339E00" height="25" id="table_5_5" onclick="console.log(5)" rx="5" ry="5" width="50" x="105" y="415" /><rect fill="#339E00" height="25" id="table_6_7" onclick="console.log(6)" rx="5" ry="5" width="25" x="165" y="415" /><rect fill="#339E00" height="25" id="table_7_4" onclick="console.log(7)" rx="5" ry="5" width="40" x="104" y="460" /><rect fill="#339E00" height="25" id="table_8_6" onclick="console.log(8)" rx="5" ry="5" width="60" x="110" y="360" /><rect fill="#339E00" height="25" id="table_9_6" onclick="console.log(9)" rx="5" ry="5" width="60" x="108" y="260" /><rect fill="#339E00" height="25" id="table_10_6" onclick="console.log(10)" rx="5" ry="5" width="60" x="101" y="160" /><rect fill="#339E00" height="25" id="table_11_4" onclick="console.log(11)" rx="5" ry="5" width="40" x="10" y="415" /><rect fill="#339E00" height="25" id="table_12_8" onclick="console.log(12)" rx="5" ry="5" width="80" x="9" y="460" /><rect fill="#339E00" height="25" id="table_13_7" onclick="console.log(13)" rx="5" ry="5" width="70" x="7" y="260" /><rect fill="#339E00" height="25" id="table_14_6" onclick="console.log(14)" rx="5" ry="5" width="60" x="7" y="160" /></svg>