<?xml version="1.0" encoding="utf-8" ?>
<svg baseProfile="full" height="1000%" version="1.1" width="1000%" xmlns="http://www.w3.org/2000/svg" xmlns:ev="http://www.w3.org/2001/xml-events" xmlns:xlink="http://www.w3.org/1999/xlink">
    <defs />
    <rect fill="rgb(0,0,0)" class="restaurantBackground" height="29.25531914893617" rx="3" ry="3" width="47" x="0" y="0" />
    <rect fill="rgb(0,0,0)" class="restaurantBackground" height="26.74468085106383" rx="3" ry="3" width="27.5" x="10" y="23.25531914893617" />
    <rect fill="rgb(0,0,0)" class="restaurantBackground" height="50" rx="3" ry="3" width="37.5" x="0" y="44.0" />
    <ellipse cx="7" cy="5.319148936170213" fill="rgb(255,165,0)" class="table" id="table_1" onclick="console.log(1)" rx="5" ry="4" />
    <ellipse cx="41" cy="4.875886524822695" fill="rgb(255,165,0)" class="table" id="table_2" onclick="console.log(2)" rx="4" ry="4" />
    <ellipse cx="7" cy="15.319148936170212" fill="rgb(255,165,0)" class="table" id="table_3" onclick="console.log(3)" rx="5" ry="4" />
    <ellipse cx="41" cy="14.875886524822695" fill="rgb(255,165,0)" class="table" id="table_4" onclick="console.log(4)" rx="4" ry="4" />
    <ellipse cx="15" cy="34.8758865248227" fill="rgb(255,165,0)" class="table" id="table_5" onclick="console.log(5)" rx="3" ry="4" />
    <ellipse cx="15" cy="44.8758865248227" fill="rgb(255,165,0)" class="table" id="table_6" onclick="console.log(6)" rx="3" ry="4" />
    <ellipse cx="31.0" cy="44.8758865248227" fill="rgb(255,165,0)" class="table" id="table_7" onclick="console.log(7)" rx="4" ry="4" />
    <ellipse cx="6" cy="54.87588652482269" fill="rgb(255,165,0)" class="table" id="table_8" onclick="console.log(8)" rx="4" ry="4" />
    <ellipse cx="32.0" cy="54.87588652482269" fill="rgb(255,165,0)" class="table" id="table_9" onclick="console.log(9)" rx="3" ry="4" />
    <ellipse cx="6" cy="64.87588652482269" fill="rgb(255,165,0)" class="table" id="table_10" onclick="console.log(10)" rx="4" ry="4" />
    <ellipse cx="32.0" cy="64.87588652482269" fill="rgb(255,165,0)" class="table" id="table_11" onclick="console.log(11)" rx="3" ry="4" />
    <ellipse cx="6" cy="74.87588652482269" fill="rgb(255,165,0)" class="table" id="table_12" onclick="console.log(12)" rx="4" ry="4" />
    <ellipse cx="32.0" cy="74.87588652482269" fill="rgb(255,165,0)" class="table" id="table_13" onclick="console.log(13)" rx="3" ry="4" />
    <ellipse cx="6" cy="84.87588652482269" fill="rgb(255,165,0)" class="table" id="table_14" onclick="console.log(14)" rx="4" ry="4" />
    <ellipse cx="32.0" cy="84.87588652482269" fill="rgb(255,165,0)" class="table" id="table_15" onclick="console.log(15)" rx="3" ry="4" />
</svg>