<?xml version="1.0" encoding="utf-8" ?>
<svg baseProfile="full" height="1000%" version="1.1" width="1000%" xmlns="http://www.w3.org/2000/svg" xmlns:ev="http://www.w3.org/2001/xml-events" xmlns:xlink="http://www.w3.org/1999/xlink">
    <defs />
    <rect fill="rgb(0,0,0)" class="restaurantBackground" height="32.35294117647059" rx="3" ry="3" width="68" x="0" y="0" />
    <rect fill="rgb(0,0,0)" class="restaurantBackground" height="23.647058823529413" rx="3" ry="3" width="44.0" x="40" y="26.352941176470587" />
    <rect fill="rgb(0,0,0)" class="restaurantBackground" height="50" rx="3" ry="3" width="84.0" x="0" y="44.0" />
    <ellipse cx="6" cy="5.88235294117647" fill="rgb(255,165,0)" class="table" id="table_1" onclick="console.log(1)" rx="4" ry="4" />
    <ellipse cx="34.0" cy="5.88235294117647" fill="rgb(255,165,0)" class="table" id="table_2" onclick="console.log(2)" rx="4" ry="4" />
    <ellipse cx="59" cy="5.3921568627450975" fill="rgb(255,165,0)" class="table" id="table_3" onclick="console.log(3)" rx="7" ry="4" />
    <ellipse cx="6" cy="15.882352941176471" fill="rgb(255,165,0)" class="table" id="table_4" onclick="console.log(4)" rx="4" ry="4" />
    <ellipse cx="34.0" cy="15.882352941176471" fill="rgb(255,165,0)" class="table" id="table_5" onclick="console.log(5)" rx="4" ry="4" />
    <ellipse cx="59" cy="15.392156862745097" fill="rgb(255,165,0)" class="table" id="table_6" onclick="console.log(6)" rx="7" ry="4" />
    <ellipse cx="6" cy="25.88235294117647" fill="rgb(255,165,0)" class="table" id="table_7" onclick="console.log(7)" rx="4" ry="4" />
    <ellipse cx="59" cy="25.392156862745097" fill="rgb(255,165,0)" class="table" id="table_8" onclick="console.log(8)" rx="7" ry="4" />
    <ellipse cx="45" cy="45.3921568627451" fill="rgb(255,165,0)" class="table" id="table_9" onclick="console.log(9)" rx="3" ry="4" />
    <ellipse cx="74.5" cy="45.3921568627451" fill="rgb(255,165,0)" class="table" id="table_10" onclick="console.log(10)" rx="7" ry="4" />
    <ellipse cx="9" cy="55.3921568627451" fill="rgb(255,165,0)" class="table" id="table_11" onclick="console.log(11)" rx="7" ry="4" />
    <ellipse cx="78.5" cy="55.3921568627451" fill="rgb(255,165,0)" class="table" id="table_12" onclick="console.log(12)" rx="3" ry="4" />
    <ellipse cx="9" cy="65.3921568627451" fill="rgb(255,165,0)" class="table" id="table_13" onclick="console.log(13)" rx="7" ry="4" />
    <ellipse cx="78.5" cy="65.3921568627451" fill="rgb(255,165,0)" class="table" id="table_14" onclick="console.log(14)" rx="3" ry="4" />
    <ellipse cx="9" cy="75.3921568627451" fill="rgb(255,165,0)" class="table" id="table_15" onclick="console.log(15)" rx="7" ry="4" />
    <ellipse cx="78.5" cy="75.3921568627451" fill="rgb(255,165,0)" class="table" id="table_16" onclick="console.log(16)" rx="3" ry="4" />
    <ellipse cx="9" cy="85.3921568627451" fill="rgb(255,165,0)" class="table" id="table_17" onclick="console.log(17)" rx="7" ry="4" />
    <ellipse cx="78.5" cy="85.3921568627451" fill="rgb(255,165,0)" class="table" id="table_18" onclick="console.log(18)" rx="3" ry="4" />
</svg>