<?xml version="1.0" encoding="utf-8" ?>
<svg baseProfile="full" height="1000%" version="1.1" width="1000%" xmlns="http://www.w3.org/2000/svg" xmlns:ev="http://www.w3.org/2001/xml-events" xmlns:xlink="http://www.w3.org/1999/xlink">
    <defs />
    <rect fill="rgb(0,0,0)" class="restaurantBackground" height="31.506849315068493" rx="3" ry="3" width="73" x="0" y="0" />
    <rect fill="rgb(0,0,0)" class="restaurantBackground" height="24.493150684931507" rx="3" ry="3" width="46.0" x="0" y="25.506849315068493" />
    <rect fill="rgb(0,0,0)" class="restaurantBackground" height="50" rx="3" ry="3" width="46.0" x="0" y="44.0" />
    <ellipse cx="7" cy="5.72851805728518" fill="rgb(255,165,0)" class="table" id="table_1" onclick="console.log(1)" rx="5" ry="4" />
    <ellipse cx="61" cy="5.251141552511416" fill="rgb(255,165,0)" class="table" id="table_2" onclick="console.log(2)" rx="10" ry="4" />
    <ellipse cx="7" cy="15.72851805728518" fill="rgb(255,165,0)" class="table" id="table_3" onclick="console.log(3)" rx="5" ry="4" />
    <ellipse cx="36.5" cy="15.72851805728518" fill="rgb(255,165,0)" class="table" id="table_4" onclick="console.log(4)" rx="5" ry="4" />
    <ellipse cx="61" cy="15.251141552511417" fill="rgb(255,165,0)" class="table" id="table_5" onclick="console.log(5)" rx="10" ry="4" />
    <ellipse cx="7" cy="25.72851805728518" fill="rgb(255,165,0)" class="table" id="table_6" onclick="console.log(6)" rx="5" ry="4" />
    <ellipse cx="61" cy="25.251141552511417" fill="rgb(255,165,0)" class="table" id="table_7" onclick="console.log(7)" rx="10" ry="4" />
    <ellipse cx="5" cy="45.25114155251141" fill="rgb(255,165,0)" class="table" id="table_8" onclick="console.log(8)" rx="3" ry="4" />
    <ellipse cx="12" cy="55.25114155251141" fill="rgb(255,165,0)" class="table" id="table_9" onclick="console.log(9)" rx="10" ry="4" />
    <ellipse cx="40.5" cy="55.25114155251141" fill="rgb(255,165,0)" class="table" id="table_10" onclick="console.log(10)" rx="3" ry="4" />
    <ellipse cx="12" cy="65.25114155251141" fill="rgb(255,165,0)" class="table" id="table_11" onclick="console.log(11)" rx="10" ry="4" />
    <ellipse cx="40.5" cy="65.25114155251141" fill="rgb(255,165,0)" class="table" id="table_12" onclick="console.log(12)" rx="3" ry="4" />
    <ellipse cx="12" cy="75.25114155251141" fill="rgb(255,165,0)" class="table" id="table_13" onclick="console.log(13)" rx="10" ry="4" />
    <ellipse cx="40.5" cy="75.25114155251141" fill="rgb(255,165,0)" class="table" id="table_14" onclick="console.log(14)" rx="3" ry="4" />
    <ellipse cx="12" cy="85.25114155251141" fill="rgb(255,165,0)" class="table" id="table_15" onclick="console.log(15)" rx="10" ry="4" />
    <ellipse cx="40.5" cy="85.25114155251141" fill="rgb(255,165,0)" class="table" id="table_16" onclick="console.log(16)" rx="3" ry="4" />
</svg>