<?xml version="1.0" encoding="utf-8" ?>
<svg baseProfile="full" height="1000%" version="1.1" width="1000%" xmlns="http://www.w3.org/2000/svg" xmlns:ev="http://www.w3.org/2001/xml-events" xmlns:xlink="http://www.w3.org/1999/xlink">
    <defs />
    <rect fill="rgb(0,0,0)" class="restaurantBackground" height="26.818181818181817" rx="3" ry="3" width="55" x="0" y="0" />
    <rect fill="rgb(0,0,0)" class="restaurantBackground" height="29.181818181818183" rx="3" ry="3" width="29.5" x="0" y="20.818181818181817" />
    <rect fill="rgb(0,0,0)" class="restaurantBackground" height="50" rx="3" ry="3" width="29.5" x="0" y="44.0" />
    <ellipse cx="10" cy="4.876033057851239" fill="rgb(255,165,0)" class="table" id="table_1" onclick="console.log(1)" rx="8" ry="4" />
    <ellipse cx="27.5" cy="4.876033057851239" fill="rgb(255,165,0)" class="table" id="table_2" onclick="console.log(2)" rx="8" ry="4" />
    <ellipse cx="49" cy="4.46969696969697" fill="rgb(255,165,0)" class="table" id="table_3" onclick="console.log(3)" rx="4" ry="4" />
    <ellipse cx="10" cy="14.876033057851238" fill="rgb(255,165,0)" class="table" id="table_4" onclick="console.log(4)" rx="8" ry="4" />
    <ellipse cx="49" cy="14.469696969696969" fill="rgb(255,165,0)" class="table" id="table_5" onclick="console.log(5)" rx="4" ry="4" />
    <ellipse cx="5" cy="34.46969696969697" fill="rgb(255,165,0)" class="table" id="table_6" onclick="console.log(6)" rx="3" ry="4" />
    <ellipse cx="23.0" cy="34.46969696969697" fill="rgb(255,165,0)" class="table" id="table_7" onclick="console.log(7)" rx="4" ry="4" />
    <ellipse cx="5" cy="44.46969696969697" fill="rgb(255,165,0)" class="table" id="table_8" onclick="console.log(8)" rx="3" ry="4" />
    <ellipse cx="6" cy="54.46969696969697" fill="rgb(255,165,0)" class="table" id="table_9" onclick="console.log(9)" rx="4" ry="4" />
    <ellipse cx="24.0" cy="54.46969696969697" fill="rgb(255,165,0)" class="table" id="table_10" onclick="console.log(10)" rx="3" ry="4" />
    <ellipse cx="6" cy="64.46969696969697" fill="rgb(255,165,0)" class="table" id="table_11" onclick="console.log(11)" rx="4" ry="4" />
    <ellipse cx="24.0" cy="64.46969696969697" fill="rgb(255,165,0)" class="table" id="table_12" onclick="console.log(12)" rx="3" ry="4" />
    <ellipse cx="6" cy="74.46969696969697" fill="rgb(255,165,0)" class="table" id="table_13" onclick="console.log(13)" rx="4" ry="4" />
    <ellipse cx="24.0" cy="74.46969696969697" fill="rgb(255,165,0)" class="table" id="table_14" onclick="console.log(14)" rx="3" ry="4" />
    <ellipse cx="6" cy="84.46969696969697" fill="rgb(255,165,0)" class="table" id="table_15" onclick="console.log(15)" rx="4" ry="4" />
    <ellipse cx="24.0" cy="84.46969696969697" fill="rgb(255,165,0)" class="table" id="table_16" onclick="console.log(16)" rx="3" ry="4" />
</svg>