<?xml version="1.0" encoding="utf-8" ?>
<svg baseProfile="full" height="100%" version="1.1" width="100%" xmlns="http://www.w3.org/2000/svg" xmlns:ev="http://www.w3.org/2001/xml-events" xmlns:xlink="http://www.w3.org/1999/xlink"><defs /><rect fill="black" height="100" width="100" x="0" y="200" /><rect fill="black" height="100" width="100" x="0" y="400" /><rect fill="black" height="100" width="100" x="0" y="500" /><rect fill="black" height="100" width="100" x="100" y="200" /><rect fill="black" height="100" width="100" x="100" y="400" /><rect fill="black" height="100" width="100" x="100" y="500" /><rect fill="black" height="100" width="100" x="200" y="200" /><rect fill="black" height="100" width="100" x="200" y="300" /><rect fill="black" height="100" width="100" x="200" y="400" /><rect fill="black" height="100" width="100" x="200" y="500" /><rect fill="black" height="100" width="100" x="300" y="0" /><rect fill="black" height="100" width="100" x="300" y="100" /><rect fill="black" height="100" width="100" x="300" y="200" /><rect fill="black" height="100" width="100" x="300" y="300" /><rect fill="black" height="100" width="100" x="300" y="400" /><rect fill="black" height="100" width="100" x="300" y="500" /><rect fill="#339E00" height="25" id="table_0_6" onclick="console.log(0)" rx="5" ry="5" width="60" x="309" y="515" /><rect fill="#339E00" height="25" id="table_1_7" onclick="console.log(1)" rx="5" ry="5" width="70" x="307" y="415" /><rect fill="#339E00" height="25" id="table_2_6" onclick="console.log(2)" rx="5" ry="5" width="60" x="308" y="315" /><rect fill="#339E00" height="25" id="table_3_5" onclick="console.log(3)" rx="5" ry="5" width="50" x="309" y="360" /><rect fill="#339E00" height="25" id="table_4_7" onclick="console.log(4)" rx="5" ry="5" width="70" x="306" y="215" /><rect fill="#339E00" height="25" id="table_5_4" onclick="console.log(5)" rx="5" ry="5" width="40" x="309" y="115" /><rect fill="#339E00" height="25" id="table_6_4" onclick="console.log(6)" rx="5" ry="5" width="40" x="308" y="15" /><rect fill="#339E00" height="25" id="table_7_5" onclick="console.log(7)" rx="5" ry="5" width="50" x="210" y="515" /><rect fill="#339E00" height="25" id="table_8_8" onclick="console.log(8)" rx="5" ry="5" width="80" x="210" y="415" /><rect fill="#339E00" height="25" id="table_9_4" onclick="console.log(9)" rx="5" ry="5" width="40" x="207" y="315" /><rect fill="#339E00" height="25" id="table_10_7" onclick="console.log(10)" rx="5" ry="5" width="70" x="205" y="360" /><rect fill="#339E00" height="25" id="table_11_4" onclick="console.log(11)" rx="5" ry="5" width="40" x="209" y="215" /><rect fill="#339E00" height="25" id="table_12_4" onclick="console.log(12)" rx="5" ry="5" width="40" x="108" y="515" /><rect fill="#339E00" height="25" id="table_13_4" onclick="console.log(13)" rx="5" ry="5" width="40" x="108" y="415" /><rect fill="#339E00" height="25" id="table_14_8" onclick="console.log(14)" rx="5" ry="5" width="80" x="108" y="215" /><rect fill="#339E00" height="25" id="table_15_7" onclick="console.log(15)" rx="5" ry="5" width="70" x="10" y="515" /><rect fill="#339E00" height="25" id="table_16_5" onclick="console.log(16)" rx="5" ry="5" width="50" x="8" y="415" /><rect fill="#339E00" height="25" id="table_17_4" onclick="console.log(17)" rx="5" ry="5" width="40" x="8" y="215" /></svg>