<?xml version="1.0" encoding="utf-8" ?>
<svg baseProfile="full" height="100%" version="1.1" width="100%" xmlns="http://www.w3.org/2000/svg" xmlns:ev="http://www.w3.org/2001/xml-events" xmlns:xlink="http://www.w3.org/1999/xlink"><defs /><rect fill="black" height="100" width="100" x="100" y="100" /><rect fill="black" height="100" width="100" x="200" y="0" /><rect fill="black" height="100" width="100" x="200" y="100" /><rect fill="black" height="100" width="100" x="300" y="0" /><rect fill="black" height="100" width="100" x="300" y="100" /><rect fill="black" height="100" width="100" x="300" y="200" /><rect fill="#339E00" height="25" id="table_0_4" onclick="console.log(0)" rx="5" ry="5" width="40" x="310" y="215" /><rect fill="#339E00" height="25" id="table_1_4" onclick="console.log(1)" rx="5" ry="5" width="40" x="310" y="115" /><rect fill="#339E00" height="25" id="table_2_5" onclick="console.log(2)" rx="5" ry="5" width="50" x="300" y="160" /><rect fill="#339E00" height="25" id="table_3_8" onclick="console.log(3)" rx="5" ry="5" width="80" x="306" y="60" /><rect fill="#339E00" height="25" id="table_4_7" onclick="console.log(4)" rx="5" ry="5" width="70" x="210" y="115" /><rect fill="#339E00" height="25" id="table_5_8" onclick="console.log(5)" rx="5" ry="5" width="80" x="208" y="160" /><rect fill="#339E00" height="25" id="table_6_5" onclick="console.log(6)" rx="5" ry="5" width="50" x="205" y="60" /><rect fill="#339E00" height="25" id="table_7_4" onclick="console.log(7)" rx="5" ry="5" width="40" x="110" y="115" /><rect fill="#339E00" height="25" id="table_8_8" onclick="console.log(8)" rx="5" ry="5" width="80" x="110" y="160" /></svg>