<?xml version="1.0" encoding="utf-8" ?>
<svg baseProfile="full" height="1000%" version="1.1" width="1000%" xmlns="http://www.w3.org/2000/svg" xmlns:ev="http://www.w3.org/2001/xml-events" xmlns:xlink="http://www.w3.org/1999/xlink">
    <defs />
    <rect fill="rgb(0,0,0)" class="restaurantBackground" height="34.25925925925926" rx="3" ry="3" width="54" x="0" y="0" />
    <rect fill="rgb(0,0,0)" class="restaurantBackground" height="21.74074074074074" rx="3" ry="3" width="37.0" x="30" y="28.25925925925926" />
    <rect fill="rgb(0,0,0)" class="restaurantBackground" height="50" rx="3" ry="3" width="67.0" x="0" y="44.0" />
    <ellipse cx="5" cy="6.228956228956229" fill="rgb(255,165,0)" class="table" id="table_1" onclick="console.log(1)" rx="3" ry="4" />
    <ellipse cx="27.0" cy="6.228956228956229" fill="rgb(255,165,0)" class="table" id="table_2" onclick="console.log(2)" rx="3" ry="4" />
    <ellipse cx="42" cy="5.709876543209877" fill="rgb(255,165,0)" class="table" id="table_3" onclick="console.log(3)" rx="10" ry="4" />
    <ellipse cx="5" cy="16.22895622895623" fill="rgb(255,165,0)" class="table" id="table_4" onclick="console.log(4)" rx="3" ry="4" />
    <ellipse cx="42" cy="15.709876543209877" fill="rgb(255,165,0)" class="table" id="table_5" onclick="console.log(5)" rx="10" ry="4" />
    <ellipse cx="5" cy="26.22895622895623" fill="rgb(255,165,0)" class="table" id="table_6" onclick="console.log(6)" rx="3" ry="4" />
    <ellipse cx="42" cy="25.709876543209877" fill="rgb(255,165,0)" class="table" id="table_7" onclick="console.log(7)" rx="10" ry="4" />
    <ellipse cx="35" cy="45.70987654320987" fill="rgb(255,165,0)" class="table" id="table_8" onclick="console.log(8)" rx="3" ry="4" />
    <ellipse cx="54.5" cy="45.70987654320987" fill="rgb(255,165,0)" class="table" id="table_9" onclick="console.log(9)" rx="10" ry="4" />
    <ellipse cx="12" cy="55.70987654320987" fill="rgb(255,165,0)" class="table" id="table_10" onclick="console.log(10)" rx="10" ry="4" />
    <ellipse cx="61.5" cy="55.70987654320987" fill="rgb(255,165,0)" class="table" id="table_11" onclick="console.log(11)" rx="3" ry="4" />
    <ellipse cx="12" cy="65.70987654320987" fill="rgb(255,165,0)" class="table" id="table_12" onclick="console.log(12)" rx="10" ry="4" />
    <ellipse cx="61.5" cy="65.70987654320987" fill="rgb(255,165,0)" class="table" id="table_13" onclick="console.log(13)" rx="3" ry="4" />
    <ellipse cx="12" cy="75.70987654320987" fill="rgb(255,165,0)" class="table" id="table_14" onclick="console.log(14)" rx="10" ry="4" />
    <ellipse cx="61.5" cy="75.70987654320987" fill="rgb(255,165,0)" class="table" id="table_15" onclick="console.log(15)" rx="3" ry="4" />
    <ellipse cx="12" cy="85.70987654320987" fill="rgb(255,165,0)" class="table" id="table_16" onclick="console.log(16)" rx="10" ry="4" />
    <ellipse cx="61.5" cy="85.70987654320987" fill="rgb(255,165,0)" class="table" id="table_17" onclick="console.log(17)" rx="3" ry="4" />
</svg>