<?xml version="1.0" encoding="utf-8" ?>
<svg baseProfile="full" height="100%" version="1.1" width="100%" xmlns="http://www.w3.org/2000/svg"
     xmlns:ev="http://www.w3.org/2001/xml-events" xmlns:xlink="http://www.w3.org/1999/xlink">
    <defs/>
    <rect fill="black" height="100" width="100" x="0" y="100"/>
    <rect fill="black" height="100" width="100" x="0" y="200"/>
    <rect fill="black" height="100" width="100" x="0" y="300"/>
    <rect fill="black" height="100" width="100" x="100" y="100"/>
    <rect fill="black" height="100" width="100" x="100" y="200"/>
    <rect fill="black" height="100" width="100" x="100" y="300"/>
    <rect fill="black" height="100" width="100" x="200" y="100"/>
    <rect fill="black" height="100" width="100" x="200" y="200"/>
    <rect fill="black" height="100" width="100" x="200" y="300"/>
    <rect fill="black" height="100" width="100" x="300" y="0"/>
    <rect fill="black" height="100" width="100" x="300" y="100"/>
    <rect fill="black" height="100" width="100" x="300" y="200"/>
    <rect fill="black" height="100" width="100" x="300" y="300"/>
    <rect fill="black" height="100" width="100" x="400" y="0"/>
    <rect fill="black" height="100" width="100" x="400" y="100"/>
    <rect fill="black" height="100" width="100" x="400" y="200"/>
    <rect fill="black" height="100" width="100" x="400" y="300"/>
    <rect fill="#339E00" height="25" id="table_0_4" onclick="console.log(0)" rx="5" ry="5" width="40" x="410" y="360"/>
    <rect fill="#339E00" height="25" id="table_1_6" onclick="console.log(1)" rx="5" ry="5" width="30" x="460" y="360"/>
    <rect fill="#339E00" height="25" id="table_2_5" onclick="console.log(2)" rx="5" ry="5" width="50" x="408" y="260"/>
    <rect fill="#339E00" height="25" id="table_3_6" onclick="console.log(3)" rx="5" ry="5" width="22" x="468" y="260"/>
    <rect fill="#339E00" height="25" id="table_4_4" onclick="console.log(4)" rx="5" ry="5" width="40" x="406" y="115"/>
    <rect fill="#339E00" height="25" id="table_5_5" onclick="console.log(5)" rx="5" ry="5" width="50" x="403" y="160"/>
    <rect fill="#339E00" height="25" id="table_6_8" onclick="console.log(6)" rx="5" ry="5" width="27" x="463" y="160"/>
    <rect fill="#339E00" height="25" id="table_7_4" onclick="console.log(7)" rx="5" ry="5" width="40" x="406" y="15"/>
    <rect fill="#339E00" height="25" id="table_8_4" onclick="console.log(8)" rx="5" ry="5" width="40" x="308" y="360"/>
    <rect fill="#339E00" height="25" id="table_9_4" onclick="console.log(9)" rx="5" ry="5" width="40" x="358" y="360"/>
    <rect fill="#339E00" height="25" id="table_10_8" onclick="console.log(10)" rx="5" ry="5" width="80" x="305"
          y="260"/>
    <rect fill="#339E00" height="25" id="table_11_6" onclick="console.log(11)" rx="5" ry="5" width="60" x="305"
          y="115"/>
    <rect fill="#339E00" height="25" id="table_12_7" onclick="console.log(12)" rx="5" ry="5" width="70" x="301"
          y="160"/>
    <rect fill="#339E00" height="25" id="table_13_4" onclick="console.log(13)" rx="5" ry="5" width="40" x="308" y="15"/>
    <rect fill="#339E00" height="25" id="table_14_8" onclick="console.log(14)" rx="5" ry="5" width="80" x="206"
          y="360"/>
    <rect fill="#339E00" height="25" id="table_15_4" onclick="console.log(15)" rx="5" ry="5" width="40" x="208"
          y="260"/>
    <rect fill="#339E00" height="25" id="table_16_8" onclick="console.log(16)" rx="5" ry="5" width="32" x="258"
          y="260"/>
    <rect fill="#339E00" height="25" id="table_17_5" onclick="console.log(17)" rx="5" ry="5" width="50" x="207"
          y="115"/>
    <rect fill="#339E00" height="25" id="table_18_7" onclick="console.log(18)" rx="5" ry="5" width="70" x="203"
          y="160"/>
    <rect fill="#339E00" height="25" id="table_19_5" onclick="console.log(19)" rx="5" ry="5" width="50" x="103"
          y="360"/>
    <rect fill="#339E00" height="25" id="table_20_4" onclick="console.log(20)" rx="5" ry="5" width="27" x="163"
          y="360"/>
    <rect fill="#339E00" height="25" id="table_21_4" onclick="console.log(21)" rx="5" ry="5" width="40" x="100"
          y="260"/>
    <rect fill="#339E00" height="25" id="table_22_4" onclick="console.log(22)" rx="5" ry="5" width="40" x="150"
          y="260"/>
    <rect fill="#339E00" height="25" id="table_23_6" onclick="console.log(23)" rx="5" ry="5" width="60" x="110"
          y="115"/>
    <rect fill="#339E00" height="25" id="table_24_7" onclick="console.log(24)" rx="5" ry="5" width="70" x="104"
          y="160"/>
    <rect fill="#339E00" height="25" id="table_25_7" onclick="console.log(25)" rx="5" ry="5" width="70" x="1" y="360"/>
    <rect fill="#339E00" height="25" id="table_26_8" onclick="console.log(26)" rx="5" ry="5" width="80" x="8" y="260"/>
    <rect fill="#339E00" height="25" id="table_27_8" onclick="console.log(27)" rx="5" ry="5" width="80" x="6" y="115"/>
    <rect fill="#339E00" height="25" id="table_28_6" onclick="console.log(28)" rx="5" ry="5" width="60" x="3" y="160"/>
</svg>