<?xml version="1.0" encoding="utf-8" ?>
<svg baseProfile="full" height="100%" version="1.1" width="100%" xmlns="http://www.w3.org/2000/svg"
     xmlns:ev="http://www.w3.org/2001/xml-events" xmlns:xlink="http://www.w3.org/1999/xlink">
    <defs/>
    <rect fill="black" height="100" width="100" x="100" y="100"/>
    <rect fill="black" height="100" width="100" x="100" y="200"/>
    <rect fill="black" height="100" width="100" x="200" y="100"/>
    <rect fill="black" height="100" width="100" x="200" y="200"/>
    <rect fill="black" height="100" width="100" x="300" y="100"/>
    <rect fill="black" height="100" width="100" x="300" y="200"/>
    <rect fill="black" height="100" width="100" x="400" y="100"/>
    <rect fill="black" height="100" width="100" x="400" y="200"/>
    <rect fill="black" height="100" width="100" x="500" y="0"/>
    <rect fill="black" height="100" width="100" x="500" y="100"/>
    <rect fill="black" height="100" width="100" x="500" y="200"/>
    <rect fill="black" height="100" width="100" x="600" y="0"/>
    <rect fill="black" height="100" width="100" x="600" y="100"/>
    <rect fill="black" height="100" width="100" x="600" y="200"/>
    <rect fill="#339E00" height="25" id="table_0_7" onclick="console.log(0)" rx="5" ry="5" width="70" x="610" y="215"/>
    <rect fill="#339E00" height="25" id="table_1_4" onclick="console.log(1)" rx="5" ry="5" width="40" x="608" y="115"/>
    <rect fill="#339E00" height="25" id="table_2_6" onclick="console.log(2)" rx="5" ry="5" width="60" x="608" y="60"/>
    <rect fill="#339E00" height="25" id="table_3_6" onclick="console.log(3)" rx="5" ry="5" width="60" x="507" y="215"/>
    <rect fill="#339E00" height="25" id="table_4_8" onclick="console.log(4)" rx="5" ry="5" width="80" x="509" y="115"/>
    <rect fill="#339E00" height="25" id="table_5_7" onclick="console.log(5)" rx="5" ry="5" width="70" x="500" y="60"/>
    <rect fill="#339E00" height="25" id="table_6_8" onclick="console.log(6)" rx="5" ry="5" width="80" x="405" y="215"/>
    <rect fill="#339E00" height="25" id="table_7_5" onclick="console.log(7)" rx="5" ry="5" width="50" x="406" y="115"/>
    <rect fill="#339E00" height="25" id="table_8_8" onclick="console.log(8)" rx="5" ry="5" width="80" x="306" y="215"/>
    <rect fill="#339E00" height="25" id="table_9_8" onclick="console.log(9)" rx="5" ry="5" width="80" x="310" y="115"/>
    <rect fill="#339E00" height="25" id="table_10_7" onclick="console.log(10)" rx="5" ry="5" width="70" x="209"
          y="215"/>
    <rect fill="#339E00" height="25" id="table_11_7" onclick="console.log(11)" rx="5" ry="5" width="70" x="208"
          y="115"/>
    <rect fill="#339E00" height="25" id="table_12_7" onclick="console.log(12)" rx="5" ry="5" width="70" x="109"
          y="215"/>
    <rect fill="#339E00" height="25" id="table_13_8" onclick="console.log(13)" rx="5" ry="5" width="80" x="106"
          y="115"/>
</svg>