<?xml version="1.0" encoding="utf-8" ?>
<svg baseProfile="full" height="100%" version="1.1" width="100%" xmlns="http://www.w3.org/2000/svg" xmlns:ev="http://www.w3.org/2001/xml-events" xmlns:xlink="http://www.w3.org/1999/xlink"><defs /><rect fill="black" height="100" width="100" x="0" y="100" /><rect fill="black" height="100" width="100" x="0" y="200" /><rect fill="black" height="100" width="100" x="0" y="300" /><rect fill="black" height="100" width="100" x="100" y="0" /><rect fill="black" height="100" width="100" x="100" y="100" /><rect fill="black" height="100" width="100" x="100" y="200" /><rect fill="black" height="100" width="100" x="100" y="300" /><rect fill="black" height="100" width="100" x="200" y="100" /><rect fill="black" height="100" width="100" x="200" y="200" /><rect fill="black" height="100" width="100" x="200" y="300" /><rect fill="#339E00" height="80" id="table_0_8" onclick="console.log(0)" rx="5" ry="5" width="25" x="260" y="303" /><rect fill="#339E00" height="60" id="table_1_6" onclick="console.log(1)" rx="5" ry="5" width="25" x="160" y="309" /><rect fill="#339E00" height="50" id="table_2_5" onclick="console.log(2)" rx="5" ry="5" width="25" x="15" y="309" /><rect fill="#339E00" height="21" id="table_3_6" onclick="console.log(3)" rx="5" ry="5" width="25" x="15" y="369" /><rect fill="#339E00" height="60" id="table_4_6" onclick="console.log(4)" rx="5" ry="5" width="25" x="60" y="302" /><rect fill="#339E00" height="60" id="table_5_6" onclick="console.log(5)" rx="5" ry="5" width="25" x="260" y="207" /><rect fill="#339E00" height="70" id="table_6_7" onclick="console.log(6)" rx="5" ry="5" width="25" x="160" y="201" /><rect fill="#339E00" height="50" id="table_7_5" onclick="console.log(7)" rx="5" ry="5" width="25" x="15" y="207" /><rect fill="#339E00" height="23" id="table_8_5" onclick="console.log(8)" rx="5" ry="5" width="25" x="15" y="267" /><rect fill="#339E00" height="40" id="table_9_4" onclick="console.log(9)" rx="5" ry="5" width="25" x="60" y="207" /><rect fill="#339E00" height="50" id="table_10_5" onclick="console.log(10)" rx="5" ry="5" width="25" x="260" y="104" /><rect fill="#339E00" height="80" id="table_11_8" onclick="console.log(11)" rx="5" ry="5" width="25" x="160" y="108" /><rect fill="#339E00" height="40" id="table_12_4" onclick="console.log(12)" rx="5" ry="5" width="25" x="15" y="106" /><rect fill="#339E00" height="34" id="table_13_6" onclick="console.log(13)" rx="5" ry="5" width="25" x="15" y="156" /><rect fill="#339E00" height="40" id="table_14_4" onclick="console.log(14)" rx="5" ry="5" width="25" x="60" y="108" /><rect fill="#339E00" height="50" id="table_15_5" onclick="console.log(15)" rx="5" ry="5" width="25" x="160" y="5" /></svg>