<?xml version="1.0" encoding="utf-8" ?>
<svg baseProfile="full" height="100%" version="1.1" width="100%" xmlns="http://www.w3.org/2000/svg"
     xmlns:ev="http://www.w3.org/2001/xml-events" xmlns:xlink="http://www.w3.org/1999/xlink">
    <defs/>
    <rect fill="black" height="100" width="100" x="0" y="0"/>
    <rect fill="black" height="100" width="100" x="0" y="100"/>
    <rect fill="black" height="100" width="100" x="0" y="200"/>
    <rect fill="black" height="100" width="100" x="100" y="100"/>
    <rect fill="black" height="100" width="100" x="100" y="200"/>
    <rect fill="black" height="100" width="100" x="200" y="0"/>
    <rect fill="black" height="100" width="100" x="200" y="100"/>
    <rect fill="black" height="100" width="100" x="200" y="200"/>
    <rect fill="black" height="100" width="100" x="300" y="0"/>
    <rect fill="black" height="100" width="100" x="300" y="100"/>
    <rect fill="black" height="100" width="100" x="300" y="200"/>
    <rect fill="black" height="100" width="100" x="500" y="0"/>
    <rect fill="black" height="100" width="100" x="500" y="100"/>
    <rect fill="black" height="100" width="100" x="500" y="200"/>
    <rect fill="black" height="100" width="100" x="600" y="0"/>
    <rect fill="black" height="100" width="100" x="600" y="100"/>
    <rect fill="black" height="100" width="100" x="600" y="200"/>
    <rect fill="#339E00" height="80" id="table_0_8" onclick="console.log(0)" rx="5" ry="5" width="25" x="615" y="207"/>
    <rect fill="#339E00" height="60" id="table_1_6" onclick="console.log(1)" rx="5" ry="5" width="25" x="660" y="204"/>
    <rect fill="#339E00" height="60" id="table_2_6" onclick="console.log(2)" rx="5" ry="5" width="25" x="515" y="209"/>
    <rect fill="#339E00" height="60" id="table_3_6" onclick="console.log(3)" rx="5" ry="5" width="25" x="560" y="209"/>
    <rect fill="#339E00" height="70" id="table_4_7" onclick="console.log(4)" rx="5" ry="5" width="25" x="315" y="206"/>
    <rect fill="#339E00" height="50" id="table_5_5" onclick="console.log(5)" rx="5" ry="5" width="25" x="360" y="203"/>
    <rect fill="#339E00" height="40" id="table_6_4" onclick="console.log(6)" rx="5" ry="5" width="25" x="215" y="209"/>
    <rect fill="#339E00" height="31" id="table_7_8" onclick="console.log(7)" rx="5" ry="5" width="25" x="215" y="259"/>
    <rect fill="#339E00" height="50" id="table_8_5" onclick="console.log(8)" rx="5" ry="5" width="25" x="115" y="210"/>
    <rect fill="#339E00" height="80" id="table_9_8" onclick="console.log(9)" rx="5" ry="5" width="25" x="15" y="208"/>
    <rect fill="#339E00" height="60" id="table_10_6" onclick="console.log(10)" rx="5" ry="5" width="25" x="60" y="201"/>
    <rect fill="#339E00" height="40" id="table_11_4" onclick="console.log(11)" rx="5" ry="5" width="25" x="615"
          y="107"/>
    <rect fill="#339E00" height="70" id="table_12_7" onclick="console.log(12)" rx="5" ry="5" width="25" x="660"
          y="108"/>
    <rect fill="#339E00" height="80" id="table_13_8" onclick="console.log(13)" rx="5" ry="5" width="25" x="515"
          y="105"/>
    <rect fill="#339E00" height="80" id="table_14_8" onclick="console.log(14)" rx="5" ry="5" width="25" x="560"
          y="102"/>
    <rect fill="#339E00" height="70" id="table_15_7" onclick="console.log(15)" rx="5" ry="5" width="25" x="315"
          y="105"/>
    <rect fill="#339E00" height="80" id="table_16_8" onclick="console.log(16)" rx="5" ry="5" width="25" x="360"
          y="101"/>
    <rect fill="#339E00" height="60" id="table_17_6" onclick="console.log(17)" rx="5" ry="5" width="25" x="215"
          y="108"/>
    <rect fill="#339E00" height="70" id="table_18_7" onclick="console.log(18)" rx="5" ry="5" width="25" x="115"
          y="106"/>
    <rect fill="#339E00" height="50" id="table_19_5" onclick="console.log(19)" rx="5" ry="5" width="25" x="15" y="107"/>
    <rect fill="#339E00" height="23" id="table_20_7" onclick="console.log(20)" rx="5" ry="5" width="25" x="15" y="167"/>
    <rect fill="#339E00" height="80" id="table_21_8" onclick="console.log(21)" rx="5" ry="5" width="25" x="60" y="102"/>
    <rect fill="#339E00" height="60" id="table_22_6" onclick="console.log(22)" rx="5" ry="5" width="25" x="615" y="10"/>
    <rect fill="#339E00" height="70" id="table_23_7" onclick="console.log(23)" rx="5" ry="5" width="25" x="660" y="3"/>
    <rect fill="#339E00" height="70" id="table_24_7" onclick="console.log(24)" rx="5" ry="5" width="25" x="515" y="10"/>
    <rect fill="#339E00" height="70" id="table_25_7" onclick="console.log(25)" rx="5" ry="5" width="25" x="560" y="7"/>
    <rect fill="#339E00" height="40" id="table_26_4" onclick="console.log(26)" rx="5" ry="5" width="25" x="315" y="7"/>
    <rect fill="#339E00" height="33" id="table_27_5" onclick="console.log(27)" rx="5" ry="5" width="25" x="315" y="57"/>
    <rect fill="#339E00" height="80" id="table_28_8" onclick="console.log(28)" rx="5" ry="5" width="25" x="360" y="6"/>
    <rect fill="#339E00" height="50" id="table_29_5" onclick="console.log(29)" rx="5" ry="5" width="25" x="215" y="8"/>
    <rect fill="#339E00" height="22" id="table_30_7" onclick="console.log(30)" rx="5" ry="5" width="25" x="215" y="68"/>
    <rect fill="#339E00" height="40" id="table_31_4" onclick="console.log(31)" rx="5" ry="5" width="25" x="15" y="6"/>
    <rect fill="#339E00" height="34" id="table_32_7" onclick="console.log(32)" rx="5" ry="5" width="25" x="15" y="56"/>
    <rect fill="#339E00" height="50" id="table_33_5" onclick="console.log(33)" rx="5" ry="5" width="25" x="60" y="6"/>
</svg>