<?xml version="1.0" encoding="utf-8" ?>
<svg baseProfile="full" height="100%" version="1.1" width="100%" xmlns="http://www.w3.org/2000/svg"
     xmlns:ev="http://www.w3.org/2001/xml-events" xmlns:xlink="http://www.w3.org/1999/xlink">
    <defs/>
    <rect fill="black" height="100" width="100" x="0" y="200"/>
    <rect fill="black" height="100" width="100" x="100" y="0"/>
    <rect fill="black" height="100" width="100" x="100" y="200"/>
    <rect fill="black" height="100" width="100" x="100" y="300"/>
    <rect fill="black" height="100" width="100" x="100" y="400"/>
    <rect fill="black" height="100" width="100" x="200" y="0"/>
    <rect fill="black" height="100" width="100" x="200" y="100"/>
    <rect fill="black" height="100" width="100" x="200" y="200"/>
    <rect fill="black" height="100" width="100" x="200" y="300"/>
    <rect fill="black" height="100" width="100" x="200" y="400"/>
    <rect fill="black" height="100" width="100" x="300" y="0"/>
    <rect fill="black" height="100" width="100" x="300" y="100"/>
    <rect fill="black" height="100" width="100" x="300" y="200"/>
    <rect fill="black" height="100" width="100" x="300" y="300"/>
    <rect fill="black" height="100" width="100" x="300" y="400"/>
    <rect fill="#339E00" height="25" id="table_0_5" onclick="console.log(0)" rx="5" ry="5" width="50" x="300" y="460"/>
    <rect fill="#339E00" height="25" id="table_1_6" onclick="console.log(1)" rx="5" ry="5" width="30" x="360" y="460"/>
    <rect fill="#339E00" height="25" id="table_2_4" onclick="console.log(2)" rx="5" ry="5" width="40" x="307" y="360"/>
    <rect fill="#339E00" height="25" id="table_3_8" onclick="console.log(3)" rx="5" ry="5" width="33" x="357" y="360"/>
    <rect fill="#339E00" height="25" id="table_4_5" onclick="console.log(4)" rx="5" ry="5" width="50" x="310" y="260"/>
    <rect fill="#339E00" height="25" id="table_5_8" onclick="console.log(5)" rx="5" ry="5" width="80" x="309" y="115"/>
    <rect fill="#339E00" height="25" id="table_6_7" onclick="console.log(6)" rx="5" ry="5" width="70" x="310" y="60"/>
    <rect fill="#339E00" height="25" id="table_7_8" onclick="console.log(7)" rx="5" ry="5" width="80" x="208" y="460"/>
    <rect fill="#339E00" height="25" id="table_8_4" onclick="console.log(8)" rx="5" ry="5" width="40" x="210" y="360"/>
    <rect fill="#339E00" height="25" id="table_9_8" onclick="console.log(9)" rx="5" ry="5" width="30" x="260" y="360"/>
    <rect fill="#339E00" height="25" id="table_10_5" onclick="console.log(10)" rx="5" ry="5" width="50" x="208"
          y="260"/>
    <rect fill="#339E00" height="25" id="table_11_4" onclick="console.log(11)" rx="5" ry="5" width="22" x="268"
          y="260"/>
    <rect fill="#339E00" height="25" id="table_12_7" onclick="console.log(12)" rx="5" ry="5" width="70" x="209"
          y="115"/>
    <rect fill="#339E00" height="25" id="table_13_4" onclick="console.log(13)" rx="5" ry="5" width="40" x="209" y="60"/>
    <rect fill="#339E00" height="25" id="table_14_7" onclick="console.log(14)" rx="5" ry="5" width="70" x="102"
          y="460"/>
    <rect fill="#339E00" height="25" id="table_15_7" onclick="console.log(15)" rx="5" ry="5" width="70" x="101"
          y="360"/>
    <rect fill="#339E00" height="25" id="table_16_7" onclick="console.log(16)" rx="5" ry="5" width="70" x="102"
          y="260"/>
    <rect fill="#339E00" height="25" id="table_17_7" onclick="console.log(17)" rx="5" ry="5" width="70" x="104" y="60"/>
    <rect fill="#339E00" height="25" id="table_18_5" onclick="console.log(18)" rx="5" ry="5" width="50" x="1" y="260"/>
</svg>