<?xml version="1.0" encoding="utf-8" ?>
<svg baseProfile="full" height="100%" version="1.1" width="100%" xmlns="http://www.w3.org/2000/svg"
     xmlns:ev="http://www.w3.org/2001/xml-events" xmlns:xlink="http://www.w3.org/1999/xlink">
    <defs/>
    <rect fill="black" height="100" width="100" x="0" y="0"/>
    <rect fill="black" height="100" width="100" x="0" y="100"/>
    <rect fill="black" height="100" width="100" x="100" y="0"/>
    <rect fill="black" height="100" width="100" x="100" y="100"/>
    <rect fill="black" height="100" width="100" x="200" y="0"/>
    <rect fill="black" height="100" width="100" x="200" y="100"/>
    <rect fill="black" height="100" width="100" x="300" y="0"/>
    <rect fill="black" height="100" width="100" x="300" y="100"/>
    <rect fill="black" height="100" width="100" x="300" y="200"/>
    <rect fill="black" height="100" width="100" x="400" y="0"/>
    <rect fill="black" height="100" width="100" x="400" y="100"/>
    <rect fill="black" height="100" width="100" x="400" y="200"/>
    <rect fill="black" height="100" width="100" x="500" y="0"/>
    <rect fill="black" height="100" width="100" x="500" y="100"/>
    <rect fill="black" height="100" width="100" x="500" y="200"/>
    <rect fill="black" height="100" width="100" x="600" y="0"/>
    <rect fill="black" height="100" width="100" x="600" y="100"/>
    <rect fill="black" height="100" width="100" x="600" y="200"/>
    <rect fill="#339E00" height="25" id="table_0_8" onclick="console.log(0)" rx="5" ry="5" width="80" x="608" y="260"/>
    <rect fill="#339E00" height="25" id="table_1_6" onclick="console.log(1)" rx="5" ry="5" width="60" x="605" y="115"/>
    <rect fill="#339E00" height="25" id="table_2_7" onclick="console.log(2)" rx="5" ry="5" width="70" x="600" y="160"/>
    <rect fill="#339E00" height="25" id="table_3_7" onclick="console.log(3)" rx="5" ry="5" width="70" x="610" y="60"/>
    <rect fill="#339E00" height="25" id="table_4_5" onclick="console.log(4)" rx="5" ry="5" width="50" x="510" y="260"/>
    <rect fill="#339E00" height="25" id="table_5_6" onclick="console.log(5)" rx="5" ry="5" width="60" x="506" y="115"/>
    <rect fill="#339E00" height="25" id="table_6_8" onclick="console.log(6)" rx="5" ry="5" width="80" x="509" y="160"/>
    <rect fill="#339E00" height="25" id="table_7_7" onclick="console.log(7)" rx="5" ry="5" width="70" x="507" y="60"/>
    <rect fill="#339E00" height="25" id="table_8_5" onclick="console.log(8)" rx="5" ry="5" width="50" x="409" y="260"/>
    <rect fill="#339E00" height="25" id="table_9_7" onclick="console.log(9)" rx="5" ry="5" width="21" x="469" y="260"/>
    <rect fill="#339E00" height="25" id="table_10_5" onclick="console.log(10)" rx="5" ry="5" width="50" x="406"
          y="115"/>
    <rect fill="#339E00" height="25" id="table_11_5" onclick="console.log(11)" rx="5" ry="5" width="50" x="403"
          y="160"/>
    <rect fill="#339E00" height="25" id="table_12_5" onclick="console.log(12)" rx="5" ry="5" width="50" x="410" y="60"/>
    <rect fill="#339E00" height="25" id="table_13_5" onclick="console.log(13)" rx="5" ry="5" width="50" x="304"
          y="260"/>
    <rect fill="#339E00" height="25" id="table_14_6" onclick="console.log(14)" rx="5" ry="5" width="26" x="364"
          y="260"/>
    <rect fill="#339E00" height="25" id="table_15_5" onclick="console.log(15)" rx="5" ry="5" width="50" x="307"
          y="115"/>
    <rect fill="#339E00" height="25" id="table_16_4" onclick="console.log(16)" rx="5" ry="5" width="40" x="307"
          y="160"/>
    <rect fill="#339E00" height="25" id="table_17_6" onclick="console.log(17)" rx="5" ry="5" width="33" x="357"
          y="160"/>
    <rect fill="#339E00" height="25" id="table_18_7" onclick="console.log(18)" rx="5" ry="5" width="70" x="300" y="60"/>
    <rect fill="#339E00" height="25" id="table_19_6" onclick="console.log(19)" rx="5" ry="5" width="60" x="207"
          y="115"/>
    <rect fill="#339E00" height="25" id="table_20_7" onclick="console.log(20)" rx="5" ry="5" width="70" x="206"
          y="160"/>
    <rect fill="#339E00" height="25" id="table_21_4" onclick="console.log(21)" rx="5" ry="5" width="40" x="200" y="60"/>
    <rect fill="#339E00" height="25" id="table_22_8" onclick="console.log(22)" rx="5" ry="5" width="40" x="250" y="60"/>
    <rect fill="#339E00" height="25" id="table_23_4" onclick="console.log(23)" rx="5" ry="5" width="40" x="110"
          y="115"/>
    <rect fill="#339E00" height="25" id="table_24_4" onclick="console.log(24)" rx="5" ry="5" width="40" x="104"
          y="160"/>
    <rect fill="#339E00" height="25" id="table_25_4" onclick="console.log(25)" rx="5" ry="5" width="40" x="154"
          y="160"/>
    <rect fill="#339E00" height="25" id="table_26_8" onclick="console.log(26)" rx="5" ry="5" width="80" x="106" y="60"/>
    <rect fill="#339E00" height="25" id="table_27_4" onclick="console.log(27)" rx="5" ry="5" width="40" x="5" y="115"/>
    <rect fill="#339E00" height="25" id="table_28_6" onclick="console.log(28)" rx="5" ry="5" width="60" x="4" y="160"/>
    <rect fill="#339E00" height="25" id="table_29_4" onclick="console.log(29)" rx="5" ry="5" width="40" x="4" y="60"/>
    <rect fill="#339E00" height="25" id="table_30_5" onclick="console.log(30)" rx="5" ry="5" width="36" x="54" y="60"/>
</svg>