<?xml version="1.0" encoding="utf-8" ?>
<svg baseProfile="full" height="100%" version="1.1" width="100%" xmlns="http://www.w3.org/2000/svg" xmlns:ev="http://www.w3.org/2001/xml-events" xmlns:xlink="http://www.w3.org/1999/xlink"><defs /><rect fill="black" height="100" width="100" x="0" y="0" /><rect fill="black" height="100" width="100" x="0" y="200" /><rect fill="black" height="100" width="100" x="100" y="0" /><rect fill="black" height="100" width="100" x="100" y="100" /><rect fill="black" height="100" width="100" x="100" y="200" /><rect fill="black" height="100" width="100" x="200" y="0" /><rect fill="black" height="100" width="100" x="200" y="100" /><rect fill="black" height="100" width="100" x="200" y="200" /><rect fill="black" height="100" width="100" x="200" y="300" /><rect fill="black" height="100" width="100" x="300" y="0" /><rect fill="black" height="100" width="100" x="300" y="100" /><rect fill="black" height="100" width="100" x="300" y="200" /><rect fill="black" height="100" width="100" x="300" y="300" /><rect fill="black" height="100" width="100" x="400" y="0" /><rect fill="black" height="100" width="100" x="400" y="100" /><rect fill="black" height="100" width="100" x="400" y="200" /><rect fill="black" height="100" width="100" x="400" y="300" /><rect fill="black" height="100" width="100" x="500" y="0" /><rect fill="black" height="100" width="100" x="500" y="100" /><rect fill="black" height="100" width="100" x="500" y="200" /><rect fill="black" height="100" width="100" x="500" y="300" /><rect fill="#339E00" height="25" id="table_0_5" onclick="console.log(0)" rx="5" ry="5" width="50" x="506" y="315" /><rect fill="#339E00" height="25" id="table_1_7" onclick="console.log(1)" rx="5" ry="5" width="70" x="510" y="360" /><rect fill="#339E00" height="25" id="table_2_5" onclick="console.log(2)" rx="5" ry="5" width="50" x="501" y="260" /><rect fill="#339E00" height="25" id="table_3_7" onclick="console.log(3)" rx="5" ry="5" width="70" x="503" y="160" /><rect fill="#339E00" height="25" id="table_4_5" onclick="console.log(4)" rx="5" ry="5" width="50" x="508" y="60" /><rect fill="#339E00" height="25" id="table_5_8" onclick="console.log(5)" rx="5" ry="5" width="80" x="410" y="315" /><rect fill="#339E00" height="25" id="table_6_7" onclick="console.log(6)" rx="5" ry="5" width="70" x="407" y="360" /><rect fill="#339E00" height="25" id="table_7_8" onclick="console.log(7)" rx="5" ry="5" width="80" x="401" y="260" /><rect fill="#339E00" height="25" id="table_8_7" onclick="console.log(8)" rx="5" ry="5" width="70" x="407" y="160" /><rect fill="#339E00" height="25" id="table_9_6" onclick="console.log(9)" rx="5" ry="5" width="60" x="407" y="60" /><rect fill="#339E00" height="25" id="table_10_8" onclick="console.log(10)" rx="5" ry="5" width="80" x="307" y="315" /><rect fill="#339E00" height="25" id="table_11_7" onclick="console.log(11)" rx="5" ry="5" width="70" x="308" y="360" /><rect fill="#339E00" height="25" id="table_12_4" onclick="console.log(12)" rx="5" ry="5" width="40" x="308" y="260" /><rect fill="#339E00" height="25" id="table_13_6" onclick="console.log(13)" rx="5" ry="5" width="60" x="304" y="160" /><rect fill="#339E00" height="25" id="table_14_7" onclick="console.log(14)" rx="5" ry="5" width="70" x="308" y="60" /><rect fill="#339E00" height="25" id="table_15_4" onclick="console.log(15)" rx="5" ry="5" width="40" x="205" y="315" /><rect fill="#339E00" height="25" id="table_16_6" onclick="console.log(16)" rx="5" ry="5" width="35" x="255" y="315" /><rect fill="#339E00" height="25" id="table_17_4" onclick="console.log(17)" rx="5" ry="5" width="40" x="208" y="360" /><rect fill="#339E00" height="25" id="table_18_4" onclick="console.log(18)" rx="5" ry="5" width="40" x="201" y="260" /><rect fill="#339E00" height="25" id="table_19_8" onclick="console.log(19)" rx="5" ry="5" width="80" x="200" y="160" /><rect fill="#339E00" height="25" id="table_20_4" onclick="console.log(20)" rx="5" ry="5" width="40" x="200" y="60" /><rect fill="#339E00" height="25" id="table_21_6" onclick="console.log(21)" rx="5" ry="5" width="60" x="103" y="260" /><rect fill="#339E00" height="25" id="table_22_6" onclick="console.log(22)" rx="5" ry="5" width="60" x="103" y="160" /><rect fill="#339E00" height="25" id="table_23_7" onclick="console.log(23)" rx="5" ry="5" width="70" x="104" y="60" /><rect fill="#339E00" height="25" id="table_24_7" onclick="console.log(24)" rx="5" ry="5" width="70" x="3" y="260" /><rect fill="#339E00" height="25" id="table_25_4" onclick="console.log(25)" rx="5" ry="5" width="40" x="2" y="60" /></svg>