<?xml version="1.0" encoding="utf-8" ?>
<svg baseProfile="full" height="1000%" version="1.1" width="1000%" xmlns="http://www.w3.org/2000/svg" xmlns:ev="http://www.w3.org/2001/xml-events" xmlns:xlink="http://www.w3.org/1999/xlink">
    <defs />
    <rect fill="rgb(0,0,0)" class="restaurantBackground" height="28.012048192771083" rx="3" ry="3" width="83" x="0" y="0" />
    <rect fill="rgb(0,0,0)" class="restaurantBackground" height="27.987951807228917" rx="3" ry="3" width="46.5" x="0" y="22.012048192771083" />
    <rect fill="rgb(0,0,0)" class="restaurantBackground" height="50" rx="3" ry="3" width="46.5" x="0" y="44.0" />
    <ellipse cx="10" cy="5.093099671412924" fill="rgb(255,165,0)" class="table" id="table_1" onclick="console.log(1)" rx="8" ry="4" />
    <ellipse cx="75" cy="4.66867469879518" fill="rgb(255,165,0)" class="table" id="table_2" onclick="console.log(2)" rx="6" ry="4" />
    <ellipse cx="10" cy="15.093099671412924" fill="rgb(255,165,0)" class="table" id="table_3" onclick="console.log(3)" rx="8" ry="4" />
    <ellipse cx="75" cy="14.66867469879518" fill="rgb(255,165,0)" class="table" id="table_4" onclick="console.log(4)" rx="6" ry="4" />
    <ellipse cx="5" cy="34.66867469879518" fill="rgb(255,165,0)" class="table" id="table_5" onclick="console.log(5)" rx="3" ry="4" />
    <ellipse cx="38.0" cy="34.66867469879518" fill="rgb(255,165,0)" class="table" id="table_6" onclick="console.log(6)" rx="6" ry="4" />
    <ellipse cx="5" cy="44.66867469879518" fill="rgb(255,165,0)" class="table" id="table_7" onclick="console.log(7)" rx="3" ry="4" />
    <ellipse cx="38.0" cy="44.66867469879518" fill="rgb(255,165,0)" class="table" id="table_8" onclick="console.log(8)" rx="6" ry="4" />
    <ellipse cx="8" cy="54.668674698795186" fill="rgb(255,165,0)" class="table" id="table_9" onclick="console.log(9)" rx="6" ry="4" />
    <ellipse cx="41.0" cy="54.668674698795186" fill="rgb(255,165,0)" class="table" id="table_10" onclick="console.log(10)" rx="3" ry="4" />
    <ellipse cx="8" cy="64.66867469879519" fill="rgb(255,165,0)" class="table" id="table_11" onclick="console.log(11)" rx="6" ry="4" />
    <ellipse cx="41.0" cy="64.66867469879519" fill="rgb(255,165,0)" class="table" id="table_12" onclick="console.log(12)" rx="3" ry="4" />
    <ellipse cx="8" cy="74.66867469879519" fill="rgb(255,165,0)" class="table" id="table_13" onclick="console.log(13)" rx="6" ry="4" />
    <ellipse cx="41.0" cy="74.66867469879519" fill="rgb(255,165,0)" class="table" id="table_14" onclick="console.log(14)" rx="3" ry="4" />
    <ellipse cx="8" cy="84.66867469879519" fill="rgb(255,165,0)" class="table" id="table_15" onclick="console.log(15)" rx="6" ry="4" />
    <ellipse cx="41.0" cy="84.66867469879519" fill="rgb(255,165,0)" class="table" id="table_16" onclick="console.log(16)" rx="3" ry="4" />
</svg>