<?xml version="1.0" encoding="utf-8" ?>
<svg baseProfile="full" height="100%" version="1.1" width="100%" xmlns="http://www.w3.org/2000/svg"
     xmlns:ev="http://www.w3.org/2001/xml-events" xmlns:xlink="http://www.w3.org/1999/xlink">
    <defs/>
    <rect fill="black" height="100" width="100" x="100" y="0"/>
    <rect fill="black" height="100" width="100" x="100" y="100"/>
    <rect fill="black" height="100" width="100" x="100" y="200"/>
    <rect fill="black" height="100" width="100" x="200" y="0"/>
    <rect fill="black" height="100" width="100" x="200" y="100"/>
    <rect fill="black" height="100" width="100" x="200" y="200"/>
    <rect fill="black" height="100" width="100" x="400" y="0"/>
    <rect fill="black" height="100" width="100" x="400" y="100"/>
    <rect fill="black" height="100" width="100" x="400" y="200"/>
    <rect fill="black" height="100" width="100" x="500" y="0"/>
    <rect fill="black" height="100" width="100" x="500" y="100"/>
    <rect fill="black" height="100" width="100" x="500" y="200"/>
    <rect fill="black" height="100" width="100" x="600" y="0"/>
    <rect fill="black" height="100" width="100" x="600" y="100"/>
    <rect fill="black" height="100" width="100" x="600" y="200"/>
    <rect fill="#339E00" height="40" id="table_0_4" onclick="console.log(0)" rx="5" ry="5" width="25" x="615" y="209"/>
    <rect fill="#339E00" height="50" id="table_1_5" onclick="console.log(1)" rx="5" ry="5" width="25" x="560" y="202"/>
    <rect fill="#339E00" height="40" id="table_2_4" onclick="console.log(2)" rx="5" ry="5" width="25" x="460" y="208"/>
    <rect fill="#339E00" height="80" id="table_3_8" onclick="console.log(3)" rx="5" ry="5" width="25" x="260" y="204"/>
    <rect fill="#339E00" height="70" id="table_4_7" onclick="console.log(4)" rx="5" ry="5" width="25" x="160" y="205"/>
    <rect fill="#339E00" height="50" id="table_5_5" onclick="console.log(5)" rx="5" ry="5" width="25" x="615" y="110"/>
    <rect fill="#339E00" height="70" id="table_6_7" onclick="console.log(6)" rx="5" ry="5" width="25" x="560" y="104"/>
    <rect fill="#339E00" height="80" id="table_7_8" onclick="console.log(7)" rx="5" ry="5" width="25" x="460" y="102"/>
    <rect fill="#339E00" height="80" id="table_8_8" onclick="console.log(8)" rx="5" ry="5" width="25" x="260" y="104"/>
    <rect fill="#339E00" height="80" id="table_9_8" onclick="console.log(9)" rx="5" ry="5" width="25" x="160" y="108"/>
    <rect fill="#339E00" height="50" id="table_10_5" onclick="console.log(10)" rx="5" ry="5" width="25" x="615" y="7"/>
    <rect fill="#339E00" height="23" id="table_11_6" onclick="console.log(11)" rx="5" ry="5" width="25" x="615" y="67"/>
    <rect fill="#339E00" height="70" id="table_12_7" onclick="console.log(12)" rx="5" ry="5" width="25" x="560" y="10"/>
    <rect fill="#339E00" height="60" id="table_13_6" onclick="console.log(13)" rx="5" ry="5" width="25" x="460" y="7"/>
    <rect fill="#339E00" height="60" id="table_14_6" onclick="console.log(14)" rx="5" ry="5" width="25" x="260" y="8"/>
    <rect fill="#339E00" height="80" id="table_15_8" onclick="console.log(15)" rx="5" ry="5" width="25" x="160" y="5"/>
</svg>