<?xml version="1.0" encoding="utf-8" ?>
<svg baseProfile="full" height="100%" version="1.1" width="100%" xmlns="http://www.w3.org/2000/svg" xmlns:ev="http://www.w3.org/2001/xml-events" xmlns:xlink="http://www.w3.org/1999/xlink"><defs /><rect fill="black" height="100" width="100" x="0" y="100" /><rect fill="black" height="100" width="100" x="100" y="100" /><rect fill="black" height="100" width="100" x="200" y="100" /><rect fill="black" height="100" width="100" x="200" y="200" /><rect fill="black" height="100" width="100" x="300" y="0" /><rect fill="black" height="100" width="100" x="300" y="100" /><rect fill="black" height="100" width="100" x="300" y="200" /><rect fill="black" height="100" width="100" x="400" y="0" /><rect fill="black" height="100" width="100" x="400" y="100" /><rect fill="black" height="100" width="100" x="400" y="200" /><rect fill="black" height="100" width="100" x="500" y="0" /><rect fill="black" height="100" width="100" x="500" y="100" /><rect fill="black" height="100" width="100" x="500" y="200" /><rect fill="black" height="100" width="100" x="600" y="0" /><rect fill="black" height="100" width="100" x="600" y="100" /><rect fill="black" height="100" width="100" x="600" y="200" /><rect fill="#339E00" height="25" id="table_0_8" onclick="console.log(0)" rx="5" ry="5" width="80" x="605" y="260" /><rect fill="#339E00" height="25" id="table_1_4" onclick="console.log(1)" rx="5" ry="5" width="40" x="609" y="115" /><rect fill="#339E00" height="25" id="table_2_6" onclick="console.log(2)" rx="5" ry="5" width="60" x="609" y="160" /><rect fill="#339E00" height="25" id="table_3_4" onclick="console.log(3)" rx="5" ry="5" width="40" x="610" y="15" /><rect fill="#339E00" height="25" id="table_4_4" onclick="console.log(4)" rx="5" ry="5" width="40" x="605" y="60" /><rect fill="#339E00" height="25" id="table_5_5" onclick="console.log(5)" rx="5" ry="5" width="35" x="655" y="60" /><rect fill="#339E00" height="25" id="table_6_7" onclick="console.log(6)" rx="5" ry="5" width="70" x="503" y="260" /><rect fill="#339E00" height="25" id="table_7_7" onclick="console.log(7)" rx="5" ry="5" width="70" x="510" y="115" /><rect fill="#339E00" height="25" id="table_8_4" onclick="console.log(8)" rx="5" ry="5" width="40" x="505" y="160" /><rect fill="#339E00" height="25" id="table_9_5" onclick="console.log(9)" rx="5" ry="5" width="35" x="555" y="160" /><rect fill="#339E00" height="25" id="table_10_8" onclick="console.log(10)" rx="5" ry="5" width="80" x="508" y="15" /><rect fill="#339E00" height="25" id="table_11_5" onclick="console.log(11)" rx="5" ry="5" width="50" x="502" y="60" /><rect fill="#339E00" height="25" id="table_12_8" onclick="console.log(12)" rx="5" ry="5" width="28" x="562" y="60" /><rect fill="#339E00" height="25" id="table_13_5" onclick="console.log(13)" rx="5" ry="5" width="50" x="410" y="260" /><rect fill="#339E00" height="25" id="table_14_6" onclick="console.log(14)" rx="5" ry="5" width="60" x="410" y="115" /><rect fill="#339E00" height="25" id="table_15_4" onclick="console.log(15)" rx="5" ry="5" width="40" x="401" y="160" /><rect fill="#339E00" height="25" id="table_16_7" onclick="console.log(16)" rx="5" ry="5" width="70" x="407" y="15" /><rect fill="#339E00" height="25" id="table_17_5" onclick="console.log(17)" rx="5" ry="5" width="50" x="409" y="60" /><rect fill="#339E00" height="25" id="table_18_7" onclick="console.log(18)" rx="5" ry="5" width="70" x="304" y="260" /><rect fill="#339E00" height="25" id="table_19_6" onclick="console.log(19)" rx="5" ry="5" width="60" x="307" y="115" /><rect fill="#339E00" height="25" id="table_20_6" onclick="console.log(20)" rx="5" ry="5" width="60" x="303" y="160" /><rect fill="#339E00" height="25" id="table_21_4" onclick="console.log(21)" rx="5" ry="5" width="40" x="305" y="15" /><rect fill="#339E00" height="25" id="table_22_8" onclick="console.log(22)" rx="5" ry="5" width="80" x="302" y="60" /><rect fill="#339E00" height="25" id="table_23_5" onclick="console.log(23)" rx="5" ry="5" width="50" x="202" y="260" /><rect fill="#339E00" height="25" id="table_24_4" onclick="console.log(24)" rx="5" ry="5" width="28" x="262" y="260" /><rect fill="#339E00" height="25" id="table_25_5" onclick="console.log(25)" rx="5" ry="5" width="50" x="208" y="115" /><rect fill="#339E00" height="25" id="table_26_4" onclick="console.log(26)" rx="5" ry="5" width="40" x="207" y="160" /><rect fill="#339E00" height="25" id="table_27_5" onclick="console.log(27)" rx="5" ry="5" width="50" x="106" y="115" /><rect fill="#339E00" height="25" id="table_28_8" onclick="console.log(28)" rx="5" ry="5" width="80" x="108" y="160" /><rect fill="#339E00" height="25" id="table_29_7" onclick="console.log(29)" rx="5" ry="5" width="70" x="8" y="115" /><rect fill="#339E00" height="25" id="table_30_7" onclick="console.log(30)" rx="5" ry="5" width="70" x="10" y="160" /></svg>