<?xml version="1.0" encoding="utf-8" ?>
<svg baseProfile="full" height="1000%" version="1.1" width="1000%" xmlns="http://www.w3.org/2000/svg" xmlns:ev="http://www.w3.org/2001/xml-events" xmlns:xlink="http://www.w3.org/1999/xlink">
    <defs />
    <rect fill="rgb(0,0,0)" class="restaurantBackground" height="25.980392156862745" rx="3" ry="3" width="51" x="0" y="0" />
    <rect fill="rgb(0,0,0)" class="restaurantBackground" height="30.019607843137255" rx="3" ry="3" width="26.5" x="10" y="19.980392156862745" />
    <rect fill="rgb(0,0,0)" class="restaurantBackground" height="50" rx="3" ry="3" width="36.5" x="0" y="44.0" />
    <ellipse cx="5" cy="4.723707664884135" fill="rgb(255,165,0)" class="table" id="table_1" onclick="console.log(1)" rx="3" ry="4" />
    <ellipse cx="41" cy="4.330065359477124" fill="rgb(255,165,0)" class="table" id="table_2" onclick="console.log(2)" rx="8" ry="4" />
    <ellipse cx="5" cy="14.723707664884135" fill="rgb(255,165,0)" class="table" id="table_3" onclick="console.log(3)" rx="3" ry="4" />
    <ellipse cx="41" cy="14.330065359477125" fill="rgb(255,165,0)" class="table" id="table_4" onclick="console.log(4)" rx="8" ry="4" />
    <ellipse cx="15" cy="34.330065359477125" fill="rgb(255,165,0)" class="table" id="table_5" onclick="console.log(5)" rx="3" ry="4" />
    <ellipse cx="15" cy="44.330065359477125" fill="rgb(255,165,0)" class="table" id="table_6" onclick="console.log(6)" rx="3" ry="4" />
    <ellipse cx="10" cy="54.33006535947712" fill="rgb(255,165,0)" class="table" id="table_7" onclick="console.log(7)" rx="8" ry="4" />
    <ellipse cx="31.0" cy="54.33006535947712" fill="rgb(255,165,0)" class="table" id="table_8" onclick="console.log(8)" rx="3" ry="4" />
    <ellipse cx="10" cy="64.33006535947712" fill="rgb(255,165,0)" class="table" id="table_9" onclick="console.log(9)" rx="8" ry="4" />
    <ellipse cx="31.0" cy="64.33006535947712" fill="rgb(255,165,0)" class="table" id="table_10" onclick="console.log(10)" rx="3" ry="4" />
    <ellipse cx="10" cy="74.33006535947712" fill="rgb(255,165,0)" class="table" id="table_11" onclick="console.log(11)" rx="8" ry="4" />
    <ellipse cx="31.0" cy="74.33006535947712" fill="rgb(255,165,0)" class="table" id="table_12" onclick="console.log(12)" rx="3" ry="4" />
    <ellipse cx="10" cy="84.33006535947712" fill="rgb(255,165,0)" class="table" id="table_13" onclick="console.log(13)" rx="8" ry="4" />
    <ellipse cx="31.0" cy="84.33006535947712" fill="rgb(255,165,0)" class="table" id="table_14" onclick="console.log(14)" rx="3" ry="4" />
</svg>