<svg xmlns:dc="http://purl.org/dc/elements/1.1/" xmlns:cc="http://creativecommons.org/ns#" xmlns:rdf="http://www.w3.org/1999/02/22-rdf-syntax-ns#" xmlns:svg="http://www.w3.org/2000/svg" xmlns="http://www.w3.org/2000/svg" xmlns:sodipodi="http://sodipodi.sourceforge.net/DTD/sodipodi-0.dtd" xmlns:inkscape="http://www.inkscape.org/namespaces/inkscape" id="svg3037" version="1.1" inkscape:version="0.48.3.1 r9886" sodipodi:docname="double_angle_left_font_awesome.svg" viewBox="401.88 172.46 966 998">  <metadata id="metadata3047">    <rdf:RDF>      <cc:Work rdf:about="">        <dc:format>image/svg+xml</dc:format>        <dc:type rdf:resource="http://purl.org/dc/dcmitype/StillImage"></dc:type>      </cc:Work>    </rdf:RDF>  </metadata>  <defs id="defs3045"></defs>  <sodipodi:namedview pagecolor="#ffffff" bordercolor="#666666" borderopacity="1" objecttolerance="10" gridtolerance="10" guidetolerance="10" inkscape:pageopacity="0" inkscape:pageshadow="2" inkscape:window-width="640" inkscape:window-height="480" id="namedview3043" showgrid="false" inkscape:zoom="0.13169643" inkscape:cx="896" inkscape:cy="896" inkscape:window-x="0" inkscape:window-y="25" inkscape:window-maximized="0" inkscape:current-layer="svg3037"></sodipodi:namedview>  <g transform="matrix(1,0,0,-1,356.88136,1247.4576)" id="g3039">    <path d="m 627,160 q 0,-13 -10,-23 L 567,87 Q 557,77 544,77 531,77 521,87 L 55,553 q -10,10 -10,23 0,13 10,23 l 466,466 q 10,10 23,10 13,0 23,-10 l 50,-50 q 10,-10 10,-23 0,-13 -10,-23 L 224,576 617,183 q 10,-10 10,-23 z m 384,0 q 0,-13 -10,-23 L 951,87 Q 941,77 928,77 915,77 905,87 L 439,553 q -10,10 -10,23 0,13 10,23 l 466,466 q 10,10 23,10 13,0 23,-10 l 50,-50 q 10,-10 10,-23 0,-13 -10,-23 L 608,576 1001,183 q 10,-10 10,-23 z" id="path3041" inkscape:connector-curvature="0" style="fill:currentColor"></path>  </g></svg>